<svg width="72" height="72" viewBox="0 0 72 72" fill="none" xmlns="http://www.w3.org/2000/svg">
<circle cx="36" cy="36" r="36" fill="#120E0B"/>
<path d="M27.5 36C27.5 37.1819 27.7328 38.3522 28.1851 39.4442C28.6374 40.5361 29.3003 41.5282 30.136 42.364C30.9718 43.1997 31.9639 43.8626 33.0558 44.3149C34.1478 44.7672 35.3181 45 36.5 45C37.6819 45 38.8522 44.7672 39.9442 44.3149C41.0361 43.8626 42.0282 43.1997 42.864 42.364C43.6997 41.5282 44.3626 40.5361 44.8149 39.4442C45.2672 38.3522 45.5 37.1819 45.5 36C45.5 34.8181 45.2672 33.6478 44.8149 32.5558C44.3626 31.4639 43.6997 30.4718 42.864 29.636C42.0282 28.8003 41.0361 28.1374 39.9442 27.6851C38.8522 27.2328 37.6819 27 36.5 27C35.3181 27 34.1478 27.2328 33.0558 27.6851C31.9639 28.1374 30.9718 28.8003 30.136 29.636C29.3003 30.4718 28.6374 31.4639 28.1851 32.5558C27.7328 33.6478 27.5 34.8181 27.5 36Z" stroke="#FF7D34" stroke-width="1.33333" stroke-linecap="round" stroke-linejoin="round"/>
<path d="M38.367 33.75C38.121 33.27 37.659 32.981 37.167 33H35.833C35.097 33 34.5 33.67 34.5 34.5C34.5 35.327 35.097 35.999 35.833 35.999H37.167C37.903 35.999 38.5 36.67 38.5 37.499C38.5 38.327 37.903 38.998 37.167 38.998H35.833C35.341 39.017 34.879 38.728 34.633 38.248M36.5 31V33M36.5 39V41M30.5 30L32 31.5M41 40.5L42.5 42" stroke="#FF7D34" stroke-width="1.33333" stroke-linecap="round" stroke-linejoin="round"/>
</svg>
