<svg width="72" height="72" viewBox="0 0 72 72" fill="none" xmlns="http://www.w3.org/2000/svg">
<circle cx="36" cy="36" r="36" fill="#120E0B"/>
<g clip-path="url(#clip0_45_1356)">
<path d="M48.5 31.5115C48.5 30.6831 47.8284 30.0115 47 30.0115H44.4395C45.1021 29.3579 45.5262 28.501 45.5262 27.4457C45.5262 26.1464 44.78 24.7349 42.6852 24.7349C39.929 24.7349 37.6265 27.6696 36.5446 29.3147C35.462 27.67 33.089 24.7352 30.3331 24.7352C28.2384 24.7352 27.4921 26.1467 27.4921 27.4461C27.4921 28.501 27.9279 29.3582 28.604 30.0119H26C25.1716 30.0119 24.5 30.6835 24.5 31.5119V36.0017H26.0131V45.7649C26.0131 46.5932 26.6847 47.2649 27.5131 47.2649H45.5056C46.334 47.2649 47.0056 46.5932 47.0056 45.7649V36.0014H48.5V31.5115H48.5ZM42.6852 26.2352C43.6126 26.2352 44.0262 26.6249 44.0262 27.4461C44.0262 29.1123 42.1666 30.0111 40.4176 30.0111H37.8785C38.9442 28.4282 40.82 26.2352 42.6852 26.2352ZM30.3331 26.2353C32.1987 26.2353 34.1453 28.4283 35.2111 30.0108H32.6712C30.9222 30.0108 28.9921 29.0886 28.9921 27.4225C28.9921 26.6016 29.4057 26.2353 30.3331 26.2353ZM47 34.5014H37.25V31.5115H47V34.5014ZM26 31.5115H35.75V34.5014H26V31.5115ZM27.5131 36.0014H35.75V45.7645H27.5131V36.0014ZM45.506 45.7645H37.25V36.0014H45.506V45.7645Z" fill="#FF7D34"/>
</g>
<defs>
<clipPath id="clip0_45_1356">
<rect width="24" height="24" fill="white" transform="translate(24.5 24)"/>
</clipPath>
</defs>
</svg>
