<svg width="72" height="72" viewBox="0 0 72 72" fill="none" xmlns="http://www.w3.org/2000/svg">
<circle cx="36" cy="36" r="36" fill="#120E0B"/>
<g clip-path="url(#clip0_45_537)">
<path d="M40.5 40C40.5 38.895 37.366 38 33.5 38M40.5 40C40.5 41.105 37.366 42 33.5 42C29.634 42 26.5 41.105 26.5 40M40.5 40V44.937C40.5 46.076 37.366 47 33.5 47C29.634 47 26.5 46.077 26.5 44.937V40M40.5 40C44.324 40 47.5 39.013 47.5 38V28M33.5 38C29.634 38 26.5 38.895 26.5 40M33.5 38C29.082 38 25.5 37.013 25.5 36V31M33.5 29C29.082 29 25.5 29.895 25.5 31M25.5 31C25.5 32.105 29.082 33 33.5 33C33.5 34.013 36.753 35 40.577 35C44.401 35 47.5 34.013 47.5 33M47.5 28C47.5 26.895 44.4 26 40.577 26C36.754 26 33.654 26.895 33.654 28M47.5 28C47.5 29.105 44.4 30 40.577 30C36.754 30 33.654 29.105 33.654 28M33.654 28V38.166" stroke="#FF7D34" stroke-width="1.33333"/>
</g>
<defs>
<clipPath id="clip0_45_537">
<rect width="24" height="24" fill="white" transform="translate(24.5 24)"/>
</clipPath>
</defs>
</svg>
