<svg width="24" height="24" viewBox="0 0 24 24" fill="none" xmlns="http://www.w3.org/2000/svg">
<circle cx="12" cy="12" r="12" fill="#45464F"/>
<path d="M17.1343 8.19586C17.1964 8.25779 17.2456 8.33135 17.2793 8.41235C17.3129 8.49334 17.3302 8.58017 17.3302 8.66786C17.3302 8.75555 17.3129 8.84238 17.2793 8.92337C17.2456 9.00436 17.1964 9.07793 17.1343 9.13986L11.1343 15.1399C11.0724 15.2019 10.9988 15.2512 10.9178 15.2848C10.8368 15.3184 10.75 15.3357 10.6623 15.3357C10.5746 15.3357 10.4878 15.3184 10.4068 15.2848C10.3258 15.2512 10.2522 15.2019 10.1903 15.1399L7.52363 12.4732C7.39845 12.348 7.32813 12.1782 7.32812 12.0012C7.32813 11.8242 7.39845 11.6544 7.52363 11.5292C7.64882 11.404 7.8186 11.3337 7.99563 11.3337C8.17267 11.3337 8.34245 11.404 8.46763 11.5292L10.6623 13.7252L16.1903 8.19586C16.2522 8.13377 16.3258 8.08452 16.4068 8.05091C16.4878 8.0173 16.5746 8 16.6623 8C16.75 8 16.8368 8.0173 16.9178 8.05091C16.9988 8.08452 17.0724 8.13377 17.1343 8.19586Z" fill="white"/>
</svg>
