<svg width="32" height="32" viewBox="0 0 32 32" fill="none" xmlns="http://www.w3.org/2000/svg">
<circle cx="16" cy="16" r="16" fill="#120E0B"/>
<path d="M16.0001 13.9169C14.8532 13.9169 13.9173 14.8528 13.9173 15.9997C13.9173 17.1466 14.8532 18.0825 16.0001 18.0825C17.1469 18.0825 18.0829 17.1466 18.0829 15.9997C18.0829 14.8528 17.1469 13.9169 16.0001 13.9169ZM22.2469 15.9997C22.2469 15.1372 22.2548 14.2825 22.2063 13.4216C22.1579 12.4216 21.9298 11.5341 21.1985 10.8028C20.4657 10.07 19.5798 9.84343 18.5798 9.795C17.7173 9.74656 16.8626 9.75437 16.0016 9.75437C15.1391 9.75437 14.2844 9.74656 13.4235 9.795C12.4235 9.84343 11.536 10.0716 10.8048 10.8028C10.0719 11.5356 9.84539 12.4216 9.79695 13.4216C9.74851 14.2841 9.75632 15.1387 9.75632 15.9997C9.75632 16.8606 9.74851 17.7169 9.79695 18.5778C9.84539 19.5778 10.0735 20.4653 10.8048 21.1966C11.5376 21.9294 12.4235 22.1559 13.4235 22.2044C14.286 22.2528 15.1407 22.245 16.0016 22.245C16.8641 22.245 17.7188 22.2528 18.5798 22.2044C19.5798 22.1559 20.4673 21.9278 21.1985 21.1966C21.9313 20.4637 22.1579 19.5778 22.2063 18.5778C22.2563 17.7169 22.2469 16.8622 22.2469 15.9997ZM16.0001 19.2044C14.2266 19.2044 12.7954 17.7731 12.7954 15.9997C12.7954 14.2262 14.2266 12.795 16.0001 12.795C17.7735 12.795 19.2048 14.2262 19.2048 15.9997C19.2048 17.7731 17.7735 19.2044 16.0001 19.2044ZM19.336 13.4122C18.9219 13.4122 18.5876 13.0778 18.5876 12.6637C18.5876 12.2497 18.9219 11.9153 19.336 11.9153C19.7501 11.9153 20.0844 12.2497 20.0844 12.6637C20.0846 12.7621 20.0653 12.8594 20.0277 12.9503C19.9902 13.0412 19.935 13.1237 19.8655 13.1932C19.796 13.2628 19.7134 13.3179 19.6226 13.3555C19.5317 13.393 19.4343 13.4123 19.336 13.4122Z" fill="#F3F3F3"/>
</svg>
