<svg width="48" height="44" viewBox="0 0 48 44" fill="none" xmlns="http://www.w3.org/2000/svg">
<rect width="48" height="44" rx="6" fill="#FF7D34"/>
<path d="M16.194 15.364V28H13.116V15.364H16.194ZM28.0546 19.432C28.0546 20.164 27.8866 20.836 27.5506 21.448C27.2146 22.048 26.6986 22.534 26.0026 22.906C25.3066 23.278 24.4426 23.464 23.4106 23.464H21.5026V28H18.4246V15.364H23.4106C24.4186 15.364 25.2706 15.538 25.9666 15.886C26.6626 16.234 27.1846 16.714 27.5326 17.326C27.8806 17.938 28.0546 18.64 28.0546 19.432ZM23.1766 21.016C23.7646 21.016 24.2026 20.878 24.4906 20.602C24.7786 20.326 24.9226 19.936 24.9226 19.432C24.9226 18.928 24.7786 18.538 24.4906 18.262C24.2026 17.986 23.7646 17.848 23.1766 17.848H21.5026V21.016H23.1766ZM32.735 25.624H36.767V28H29.657V15.364H32.735V25.624Z" fill="#EEF0FF"/>
</svg>
