<svg width="52" height="52" viewBox="0 0 52 52" fill="none" xmlns="http://www.w3.org/2000/svg">
<circle cx="26" cy="26" r="26" transform="matrix(-1 0 0 1 52 0)" fill="#FCFDFE"/>
<path d="M28.707 19.636C28.8945 19.8236 28.9998 20.0779 28.9998 20.343C28.9998 20.6082 28.8945 20.8625 28.707 21.05L23.757 26L28.707 30.95C28.8892 31.1387 28.99 31.3913 28.9877 31.6535C28.9854 31.9156 28.8803 32.1665 28.6949 32.3519C28.5095 32.5373 28.2586 32.6424 27.9964 32.6447C27.7343 32.647 27.4817 32.5462 27.293 32.364L21.636 26.707C21.4486 26.5195 21.3433 26.2652 21.3433 26C21.3433 25.7349 21.4486 25.4806 21.636 25.293L27.293 19.636C27.4806 19.4486 27.7349 19.3433 28 19.3433C28.2652 19.3433 28.5195 19.4486 28.707 19.636Z" fill="#1C2132"/>
</svg>
