<svg width="32" height="32" viewBox="0 0 32 32" fill="none" xmlns="http://www.w3.org/2000/svg">
<circle cx="16" cy="16" r="16" fill="#120E0B"/>
<path d="M22.9735 12.0003C22.4602 12.2337 21.9069 12.387 21.3335 12.4603C21.9202 12.107 22.3735 11.547 22.5869 10.8737C22.0335 11.207 21.4202 11.4403 20.7735 11.5737C20.2469 11.0003 19.5069 10.667 18.6669 10.667C17.1002 10.667 15.8202 11.947 15.8202 13.527C15.8202 13.7537 15.8469 13.9737 15.8935 14.1803C13.5202 14.0603 11.4069 12.9203 10.0002 11.1937C9.75352 11.6137 9.61352 12.107 9.61352 12.627C9.61352 13.6203 10.1135 14.5003 10.8869 15.0003C10.4135 15.0003 9.97352 14.867 9.58686 14.667V14.687C9.58686 16.0737 10.5735 17.2337 11.8802 17.4937C11.4607 17.6089 11.0202 17.6249 10.5935 17.5403C10.7746 18.1086 11.1292 18.6059 11.6075 18.9623C12.0859 19.3186 12.6638 19.5161 13.2602 19.527C12.2493 20.3273 10.9962 20.7599 9.70686 20.7537C9.48019 20.7537 9.25352 20.7403 9.02686 20.7137C10.2935 21.527 11.8002 22.0003 13.4135 22.0003C18.6669 22.0003 21.5535 17.6403 21.5535 13.8603C21.5535 13.7337 21.5535 13.6137 21.5469 13.487C22.1069 13.087 22.5869 12.5803 22.9735 12.0003Z" fill="#F3F3F3"/>
</svg>
